<svg width="36" height="37" viewBox="0 0 36 37" fill="none" xmlns="http://www.w3.org/2000/svg">
<g filter="url(#filter0_i_34_6)">
<path d="M36 18.5C36 28.7173 27.9411 37 18 37C8.05887 37 0 28.7173 0 18.5C0 8.28273 8.05887 0 18 0C27.9411 0 36 8.28273 36 18.5Z" fill="url(#paint0_linear_34_6)"/>
</g>
<path d="M34.5 18.5C34.5 27.9278 27.0742 35.5 18 35.5C8.92578 35.5 1.5 27.9278 1.5 18.5C1.5 9.07215 8.92578 1.5 18 1.5C27.0742 1.5 34.5 9.07215 34.5 18.5Z" stroke="#F9F6F6" stroke-width="3"/>
<defs>
<filter id="filter0_i_34_6" x="0" y="0" width="36" height="41" filterUnits="userSpaceOnUse" color-interpolation-filters="sRGB">
<feFlood flood-opacity="0" result="BackgroundImageFix"/>
<feBlend mode="normal" in="SourceGraphic" in2="BackgroundImageFix" result="shape"/>
<feColorMatrix in="SourceAlpha" type="matrix" values="0 0 0 0 0 0 0 0 0 0 0 0 0 0 0 0 0 0 127 0" result="hardAlpha"/>
<feOffset dy="4"/>
<feGaussianBlur stdDeviation="2"/>
<feComposite in2="hardAlpha" operator="arithmetic" k2="-1" k3="1"/>
<feColorMatrix type="matrix" values="0 0 0 0 0 0 0 0 0 0 0 0 0 0 0 0 0 0 0.25 0"/>
<feBlend mode="normal" in2="shape" result="effect1_innerShadow_34_6"/>
</filter>
<linearGradient id="paint0_linear_34_6" x1="18" y1="0" x2="18" y2="37" gradientUnits="userSpaceOnUse">
<stop stop-color="#E9EC6F"/>
<stop offset="0.945" stop-color="#FCFF53" stop-opacity="0.25"/>
<stop offset="1" stop-color="#F4F764" stop-opacity="0"/>
</linearGradient>
</defs>
</svg>
