<svg width="32" height="32" viewBox="0 0 32 32" fill="none" xmlns="http://www.w3.org/2000/svg">
<path d="M23.686 8.31395C23.5467 8.17456 23.3813 8.06398 23.1992 7.98854C23.0172 7.9131 22.8221 7.87427 22.625 7.87427C22.4279 7.87427 22.2328 7.9131 22.0507 7.98854C21.8687 8.06398 21.7033 8.17456 21.564 8.31395L16 13.8799L10.436 8.31495C10.1546 8.03355 9.77294 7.87547 9.37499 7.87547C8.97704 7.87547 8.59539 8.03355 8.31399 8.31495C8.0326 8.59634 7.87451 8.978 7.87451 9.37595C7.87451 9.7739 8.0326 10.1556 8.31399 10.4369L13.88 15.9999L8.31499 21.5639C8.17566 21.7033 8.06514 21.8687 7.98973 22.0507C7.91432 22.2328 7.87551 22.4279 7.87551 22.6249C7.87551 23.0229 8.0336 23.4046 8.31499 23.6859C8.59639 23.9673 8.97804 24.1254 9.37599 24.1254C9.77394 24.1254 10.1556 23.9673 10.437 23.6859L16 18.1199L21.564 23.6849C21.8454 23.9663 22.227 24.1244 22.625 24.1244C23.0229 24.1244 23.4046 23.9663 23.686 23.6849C23.9674 23.4036 24.1255 23.0219 24.1255 22.6239C24.1255 22.226 23.9674 21.8443 23.686 21.5629L18.12 15.9999L23.685 10.4359C23.8244 10.2966 23.935 10.1312 24.0104 9.94919C24.0858 9.76714 24.1247 9.57201 24.1247 9.37495C24.1247 9.17788 24.0858 8.98275 24.0104 8.8007C23.935 8.61865 23.8244 8.45325 23.685 8.31395" fill="black"/>
<path d="M6 1C5.34339 1 4.69321 1.12933 4.08658 1.3806C3.47995 1.63188 2.92876 2.00017 2.46447 2.46447C1.52678 3.40215 1 4.67392 1 6V26C1 27.3261 1.52678 28.5979 2.46447 29.5355C2.92876 29.9998 3.47995 30.3681 4.08658 30.6194C4.69321 30.8707 5.34339 31 6 31H26C27.3261 31 28.5979 30.4732 29.5355 29.5355C30.4732 28.5979 31 27.3261 31 26V6C31 5.34339 30.8707 4.69321 30.6194 4.08658C30.3681 3.47995 29.9998 2.92876 29.5355 2.46447C29.0712 2.00017 28.52 1.63188 27.9134 1.3806C27.3068 1.12933 26.6566 1 26 1H6ZM3 6C3 5.20435 3.31607 4.44129 3.87868 3.87868C4.44129 3.31607 5.20435 3 6 3H26C26.7956 3 27.5587 3.31607 28.1213 3.87868C28.6839 4.44129 29 5.20435 29 6V26C29 26.7956 28.6839 27.5587 28.1213 28.1213C27.5587 28.6839 26.7956 29 26 29H6C5.20435 29 4.44129 28.6839 3.87868 28.1213C3.31607 27.5587 3 26.7956 3 26V6Z" fill="black"/>
</svg>
