<svg width="738" height="148" viewBox="0 0 738 148" fill="none" xmlns="http://www.w3.org/2000/svg">
<rect x="591.5" y="0.5" width="146" height="147" stroke="#0B0606"/>
<path d="M640 49.3332H627.75C624.501 49.3332 621.385 50.6326 619.088 52.9455C616.791 55.2585 615.5 58.3955 615.5 61.6665V111C615.5 114.271 616.791 117.408 619.088 119.721C621.385 122.034 624.501 123.333 627.75 123.333H701.25C704.499 123.333 707.615 122.034 709.912 119.721C712.209 117.408 713.5 114.271 713.5 111V61.6665C713.5 58.3955 712.209 55.2585 709.912 52.9455C707.615 50.6326 704.499 49.3332 701.25 49.3332H689M640 49.3332V36.9998C640 33.7288 641.291 30.5918 643.588 28.2789C645.885 25.9659 649.001 24.6665 652.25 24.6665H676.75C679.999 24.6665 683.115 25.9659 685.412 28.2789C687.709 30.5918 689 33.7288 689 36.9998V49.3332M640 49.3332H689M664.5 73.9998V86.3332M664.5 86.3332V98.6665M664.5 86.3332H652.25M664.5 86.3332H676.75" stroke="#FFFCFC" stroke-width="2" stroke-linecap="round" stroke-linejoin="round"/>
</svg>
