<svg width="67" height="64" viewBox="0 0 67 64" fill="none" xmlns="http://www.w3.org/2000/svg">
<path d="M50.3457 15.6032C50.0365 15.3058 49.6695 15.0699 49.2655 14.909C48.8615 14.7481 48.4284 14.6652 47.9911 14.6652C47.5538 14.6652 47.1207 14.7481 46.7167 14.909C46.3127 15.0699 45.9457 15.3058 45.6365 15.6032L33.2889 27.4773L20.9413 15.6053C20.3168 15.005 19.4698 14.6678 18.5867 14.6678C17.7036 14.6678 16.8566 15.005 16.2321 15.6053C15.6077 16.2056 15.2568 17.0198 15.2568 17.8688C15.2568 18.7178 15.6077 19.532 16.2321 20.1323L28.5842 32L16.2343 43.8699C15.9251 44.1671 15.6799 44.52 15.5125 44.9084C15.3452 45.2967 15.2591 45.713 15.2591 46.1333C15.2591 46.9823 15.6099 47.7965 16.2343 48.3968C16.8588 48.9971 17.7058 49.3344 18.5889 49.3344C19.4721 49.3344 20.319 48.9971 20.9435 48.3968L33.2889 36.5227L45.6365 48.3947C46.261 48.995 47.108 49.3322 47.9911 49.3322C48.8742 49.3322 49.7212 48.995 50.3457 48.3947C50.9701 47.7944 51.321 46.9802 51.321 46.1312C51.321 45.2822 50.9701 44.468 50.3457 43.8677L37.9936 32L50.3435 20.1301C50.6528 19.833 50.8982 19.4801 51.0656 19.0917C51.233 18.7034 51.3192 18.2871 51.3192 17.8667C51.3192 17.4463 51.233 17.03 51.0656 16.6416C50.8982 16.2532 50.6528 15.9004 50.3435 15.6032" fill="#F8F8F8"/>
<path d="M11.096 0C9.63885 0 8.19597 0.275902 6.84974 0.811952C5.50352 1.348 4.2803 2.1337 3.24994 3.12419C1.16904 5.12458 0 7.83769 0 10.6667V53.3333C0 56.1623 1.16904 58.8754 3.24994 60.8758C4.2803 61.8663 5.50352 62.652 6.84974 63.1881C8.19597 63.7241 9.63885 64 11.096 64H55.48C58.4228 64 61.2452 62.8762 63.3261 60.8758C65.407 58.8754 66.576 56.1623 66.576 53.3333V10.6667C66.576 9.2659 66.289 7.87885 65.7314 6.58471C65.1737 5.29057 64.3564 4.11469 63.3261 3.12419C62.2957 2.1337 61.0725 1.348 59.7263 0.811952C58.38 0.275902 56.9371 0 55.48 0H11.096ZM4.4384 10.6667C4.4384 8.96928 5.13982 7.34142 6.38837 6.14118C7.63691 4.94095 9.33029 4.26667 11.096 4.26667H55.48C57.2457 4.26667 58.9391 4.94095 60.1876 6.14118C61.4362 7.34142 62.1376 8.96928 62.1376 10.6667V53.3333C62.1376 55.0307 61.4362 56.6586 60.1876 57.8588C58.9391 59.0591 57.2457 59.7333 55.48 59.7333H11.096C9.33029 59.7333 7.63691 59.0591 6.38837 57.8588C5.13982 56.6586 4.4384 55.0307 4.4384 53.3333V10.6667Z" fill="#F8F8F8"/>
</svg>
