<svg width="52" height="54" viewBox="0 0 52 54" fill="none" xmlns="http://www.w3.org/2000/svg">
<path d="M0.625 8.25C0.625 6.26088 1.38884 4.35322 2.74848 2.9467C4.10811 1.54018 5.95218 0.75 7.875 0.75H44.125C46.0478 0.75 47.8919 1.54018 49.2515 2.9467C50.6112 4.35322 51.375 6.26088 51.375 8.25V45.75C51.375 47.7391 50.6112 49.6468 49.2515 51.0533C47.8919 52.4598 46.0478 53.25 44.125 53.25H7.875C5.95218 53.25 4.10811 52.4598 2.74848 51.0533C1.38884 49.6468 0.625 47.7391 0.625 45.75V8.25Z" fill="#00D26A"/>
<path d="M36.0847 12.5887C36.5948 12.0611 37.2865 11.7646 38.0078 11.7646C38.7291 11.7646 39.4209 12.0611 39.9309 12.5887C40.4409 13.1163 40.7274 13.8319 40.7274 14.578C40.7274 15.3242 40.4409 16.0398 39.9309 16.5674L29.8425 26.9999L39.9291 37.4324C40.4391 37.96 40.7256 38.6756 40.7256 39.4218C40.7256 40.168 40.4391 40.8836 39.9291 41.4112C39.419 41.9388 38.7273 42.2352 38.006 42.2352C37.2847 42.2352 36.593 41.9388 36.0829 41.4112L26 30.9749L15.9153 41.4093C15.4052 41.9369 14.7135 42.2333 13.9922 42.2333C13.2709 42.2333 12.5792 41.9369 12.0691 41.4093C11.5591 40.8817 11.2726 40.1661 11.2726 39.4199C11.2726 38.6738 11.5591 37.9582 12.0691 37.4305L22.1575 26.9999L12.0709 16.5674C11.5609 16.0398 11.2744 15.3242 11.2744 14.578C11.2744 13.8319 11.5609 13.1163 12.0709 12.5887C12.581 12.0611 13.2727 11.7646 13.994 11.7646C14.7153 11.7646 15.407 12.0611 15.9171 12.5887L26 23.0249L36.0847 12.5887Z" fill="white"/>
</svg>
