<svg width="59" height="57" viewBox="0 0 59 57" fill="none" xmlns="http://www.w3.org/2000/svg">
<rect x="0.5" y="0.5" width="58" height="56" stroke="black"/>
<path d="M19.6663 19H14.7497C13.4457 19 12.1951 19.5004 11.2731 20.3912C10.351 21.282 9.83301 22.4902 9.83301 23.75V42.75C9.83301 44.0098 10.351 45.218 11.2731 46.1088C12.1951 46.9996 13.4457 47.5 14.7497 47.5H44.2497C45.5537 47.5 46.8042 46.9996 47.7263 46.1088C48.6483 45.218 49.1663 44.0098 49.1663 42.75V23.75C49.1663 22.4902 48.6483 21.282 47.7263 20.3912C46.8042 19.5004 45.5537 19 44.2497 19H39.333M19.6663 19V14.25C19.6663 12.9902 20.1843 11.782 21.1064 10.8912C22.0285 10.0004 23.279 9.5 24.583 9.5H34.4163C35.7203 9.5 36.9709 10.0004 37.8929 10.8912C38.815 11.782 39.333 12.9902 39.333 14.25V19M19.6663 19H39.333M29.4997 28.5V33.25M29.4997 33.25V38M29.4997 33.25H24.583M29.4997 33.25H34.4163" stroke="#F8F8F8" stroke-width="2" stroke-linecap="round" stroke-linejoin="round"/>
</svg>
