<svg width="113" height="103" viewBox="0 0 113 103" fill="none" xmlns="http://www.w3.org/2000/svg">
<g clip-path="url(#clip0_71_906)">
<path d="M62.4142 0.42492C67.7552 0.984982 72.9142 2.32398 76.4842 6.11567C80.0192 9.85586 81.0762 14.9865 81.0762 20.9219C81.0762 23.9282 80.4672 28.1255 79.9772 31.4601L79.8722 32.1875H89.8262C94.0472 32.1875 98.0442 32.7347 101.502 34.3312C105.058 35.9664 107.879 38.7023 109.461 42.0562C112.632 48.4809 112.527 57.8088 110.777 69.8405L110.497 71.8103C109.762 76.896 109.132 81.2928 108.306 84.8978C107.389 88.9534 106.101 92.6807 103.63 95.6613C98.3662 102.015 89.5182 103 77.5762 103C64.6402 103 54.9382 100.856 46.8602 98.7963C45.7052 98.5067 44.5992 98.217 43.5352 97.9402C38.9292 96.7428 35.1352 95.7514 31.4602 95.2686C30.6517 97.5189 29.0922 99.4774 27.0035 100.865C24.9147 102.254 22.4032 103.001 19.8262 103H12.8262C9.57727 103 6.46143 101.813 4.16411 99.7004C1.86679 97.5877 0.576172 94.7222 0.576172 91.7344L0.576172 43.4532C0.576172 37.2345 6.06417 32.1875 12.8262 32.1875H19.8262C21.9726 32.1873 24.0814 32.7058 25.9414 33.691C27.8014 34.6762 29.3473 36.0935 30.4242 37.801C32.2302 37.1251 34.5542 36.0758 36.8502 34.5308C41.5472 31.3764 46.0762 26.2586 46.0762 17.7032V14.4844C46.0762 6.74654 53.0342 -0.560018 62.4142 0.42492ZM32.0762 85.6188C37.0112 86.1853 41.8062 87.447 46.5802 88.6959L49.6672 89.5006C57.3392 91.464 66.0052 93.3502 77.5762 93.3502C90.1342 93.3502 93.5362 91.9147 95.2722 89.816C96.3012 88.5736 97.2042 86.5651 98.0302 82.9279C98.7652 79.6963 99.3462 75.6922 100.095 70.5035L100.375 68.5723C102.125 56.4569 101.698 49.6911 99.8992 46.0604C99.3124 44.7176 98.212 43.6186 96.8052 42.9704C95.3492 42.3009 93.1652 41.8502 89.8262 41.8502H77.5762C72.7742 41.8502 68.5112 38.1358 69.1342 33.2497C69.2952 32.0137 69.4842 30.7391 69.6662 29.4774C70.1212 26.3359 70.5762 23.233 70.5762 20.9284C70.5762 15.7204 69.5682 13.5252 68.5602 12.4566C67.6012 11.4395 65.7462 10.4996 61.2242 10.0232C59.0752 9.79148 56.5762 11.5425 56.5762 14.4844V17.7032C56.5762 30.076 49.7302 37.8397 43.0452 42.3266C39.6975 44.5662 35.9989 46.3245 32.0762 47.541V85.6188ZM19.8262 41.8438H12.8262C12.362 41.8438 11.9169 42.0133 11.5887 42.3152C11.2605 42.617 11.0762 43.0263 11.0762 43.4532V91.7344C11.0762 92.6228 11.8602 93.3438 12.8262 93.3438H19.8262C20.2903 93.3438 20.7354 93.1742 21.0636 92.8724C21.3918 92.5706 21.5762 92.1612 21.5762 91.7344V43.4532C21.5762 43.0263 21.3918 42.617 21.0636 42.3152C20.7354 42.0133 20.2903 41.8438 19.8262 41.8438Z" fill="#F8F8F8"/>
</g>
<defs>
<clipPath id="clip0_71_906">
<rect width="112" height="103" fill="white" transform="translate(0.576172)"/>
</clipPath>
</defs>
</svg>
