<svg width="67" height="73" viewBox="0 0 67 73" fill="none" xmlns="http://www.w3.org/2000/svg">
<path d="M61.6833 72.125L38.3208 47.1875C36.4667 48.7708 34.3344 50.0243 31.924 50.9479C29.5135 51.8715 26.9486 52.3333 24.2292 52.3333C17.4924 52.3333 11.7914 49.8422 7.12633 44.86C2.46125 39.8778 0.127472 33.7925 0.125 26.6042C0.125 19.4132 2.45878 13.3279 7.12633 8.34833C11.7939 3.36875 17.4948 0.877639 24.2292 0.875C30.966 0.875 36.6682 3.36611 41.3357 8.34833C46.0033 13.3306 48.3358 19.4158 48.3333 26.6042C48.3333 29.5069 47.9007 32.2448 47.0354 34.8177C46.1701 37.3906 44.9958 39.6667 43.5125 41.6458L66.875 66.5833L61.6833 72.125ZM24.2292 44.4167C28.8646 44.4167 32.8053 42.6856 36.0513 39.2233C39.2974 35.7611 40.9191 31.5547 40.9167 26.6042C40.9167 21.6562 39.2949 17.4512 36.0513 13.989C32.8078 10.5267 28.8671 8.79431 24.2292 8.79167C19.5937 8.79167 15.6543 10.5241 12.4107 13.989C9.16715 17.4538 7.54414 21.6589 7.54167 26.6042C7.54167 31.5521 9.16468 35.7585 12.4107 39.2233C15.6567 42.6882 19.5962 44.4193 24.2292 44.4167Z" fill="black"/>
</svg>
