<svg width="95" height="123" viewBox="0 0 95 123" fill="none" xmlns="http://www.w3.org/2000/svg">
<path d="M47.5 73.8C34.9022 73.8 22.8204 69.9123 13.9124 62.9922C5.00445 56.0721 0 46.6865 0 36.9C0 27.1135 5.00445 17.7279 13.9124 10.8078C22.8204 3.88767 34.9022 0 47.5 0C60.0978 0 72.1796 3.88767 81.0876 10.8078C89.9955 17.7279 95 27.1135 95 36.9C95 46.6865 89.9955 56.0721 81.0876 62.9922C72.1796 69.9123 60.0978 73.8 47.5 73.8ZM47.5 55.35C53.7989 55.35 59.8398 53.4062 64.2938 49.9461C68.7478 46.4861 71.25 41.7932 71.25 36.9C71.25 32.0068 68.7478 27.3139 64.2938 23.8539C59.8398 20.3938 53.7989 18.45 47.5 18.45C41.2011 18.45 35.1602 20.3938 30.7062 23.8539C26.2522 27.3139 23.75 32.0068 23.75 36.9C23.75 41.7932 26.2522 46.4861 30.7062 49.9461C35.1602 53.4062 41.2011 55.35 47.5 55.35ZM79.1667 72.2625V123L47.5 98.4L15.8333 123V72.2625C25.1127 77.3141 36.169 80.024 47.5 80.024C58.831 80.024 69.8873 77.3141 79.1667 72.2625Z" fill="#F8F8F8"/>
</svg>
