<svg width="34" height="46" viewBox="0 0 34 46" fill="none" xmlns="http://www.w3.org/2000/svg">
<path d="M17 27.6C12.4913 27.6 8.1673 26.1461 4.97919 23.5581C1.79107 20.9701 0 17.46 0 13.8C0 10.14 1.79107 6.62993 4.97919 4.04193C8.1673 1.45392 12.4913 0 17 0C21.5087 0 25.8327 1.45392 29.0208 4.04193C32.2089 6.62993 34 10.14 34 13.8C34 17.46 32.2089 20.9701 29.0208 23.5581C25.8327 26.1461 21.5087 27.6 17 27.6ZM17 20.7C19.2543 20.7 21.4163 19.973 23.0104 18.679C24.6045 17.385 25.5 15.63 25.5 13.8C25.5 11.97 24.6045 10.215 23.0104 8.92096C21.4163 7.62696 19.2543 6.9 17 6.9C14.7457 6.9 12.5837 7.62696 10.9896 8.92096C9.39553 10.215 8.5 11.97 8.5 13.8C8.5 15.63 9.39553 17.385 10.9896 18.679C12.5837 19.973 14.7457 20.7 17 20.7ZM28.3333 27.025V46L17 36.8L5.66667 46V27.025C8.9877 28.9142 12.9447 29.9277 17 29.9277C21.0553 29.9277 25.0123 28.9142 28.3333 27.025Z" fill="#F8F8F8"/>
</svg>
