<svg width="67" height="64" viewBox="0 0 67 64" fill="none" xmlns="http://www.w3.org/2000/svg">
<path d="M11.096 0C9.63885 0 8.19597 0.275902 6.84974 0.811952C5.50352 1.348 4.2803 2.1337 3.24994 3.12419C1.16904 5.12458 0 7.83769 0 10.6667V53.3333C0 56.1623 1.16904 58.8754 3.24994 60.8758C4.2803 61.8663 5.50352 62.652 6.84974 63.1881C8.19597 63.7241 9.63885 64 11.096 64H55.48C58.4228 64 61.2452 62.8762 63.3261 60.8758C65.407 58.8754 66.576 56.1623 66.576 53.3333V10.6667C66.576 9.2659 66.289 7.87885 65.7314 6.58471C65.1737 5.29057 64.3564 4.11469 63.3261 3.12419C62.2957 2.1337 61.0725 1.348 59.7263 0.811952C58.38 0.275902 56.9371 0 55.48 0H11.096ZM4.4384 10.6667C4.4384 8.96928 5.13982 7.34142 6.38837 6.14118C7.63691 4.94095 9.33029 4.26667 11.096 4.26667H55.48C57.2457 4.26667 58.9391 4.94095 60.1876 6.14118C61.4362 7.34142 62.1376 8.96928 62.1376 10.6667V53.3333C62.1376 55.0307 61.4362 56.6586 60.1876 57.8588C58.9391 59.0591 57.2457 59.7333 55.48 59.7333H11.096C9.33029 59.7333 7.63691 59.0591 6.38837 57.8588C5.13982 56.6586 4.4384 55.0307 4.4384 53.3333V10.6667Z" fill="#F8F8F8"/>
</svg>
