<svg width="37" height="35" viewBox="0 0 37 35" fill="none" xmlns="http://www.w3.org/2000/svg">
<mask id="path-1-inside-1_133_46" fill="white">
<path d="M35.0888 0.937984C34.7797 0.640619 34.4126 0.404726 34.0086 0.243783C33.6046 0.0828392 33.1716 0 32.7343 0C32.2969 0 31.8639 0.0828392 31.4599 0.243783C31.0559 0.404726 30.6888 0.640619 30.3797 0.937984L18.0321 12.8121L5.68444 0.940116C5.05997 0.339808 4.213 0.00255838 3.32987 0.00255839C2.44673 0.0025584 1.59977 0.339808 0.975296 0.940116C0.350825 1.54042 6.57987e-09 2.35462 0 3.20358C-6.57987e-09 4.05255 0.350825 4.86674 0.975296 5.46705L13.3274 17.3348L0.977514 29.2046C0.668307 29.5019 0.423031 29.8548 0.25569 30.2431C0.0883486 30.6315 0.00221904 31.0478 0.00221904 31.4681C0.00221904 32.3171 0.353043 33.1313 0.977514 33.7316C1.60198 34.3319 2.44895 34.6691 3.33209 34.6691C4.21522 34.6691 5.06219 34.3319 5.68666 33.7316L18.0321 21.8575L30.3797 33.7294C31.0042 34.3298 31.8511 34.667 32.7343 34.667C33.6174 34.667 34.4644 34.3298 35.0888 33.7294C35.7133 33.1291 36.0641 32.3149 36.0641 31.466C36.0641 30.617 35.7133 29.8028 35.0888 29.2025L22.7368 17.3348L35.0866 5.46492C35.3959 5.16774 35.6413 4.81489 35.8088 4.42651C35.9762 4.03814 36.0624 3.62185 36.0624 3.20145C36.0624 2.78105 35.9762 2.36476 35.8088 1.97639C35.6413 1.58801 35.3959 1.23516 35.0866 0.937984"/>
</mask>
<path d="M35.0888 0.937984C34.7797 0.640619 34.4126 0.404726 34.0086 0.243783C33.6046 0.0828392 33.1716 0 32.7343 0C32.2969 0 31.8639 0.0828392 31.4599 0.243783C31.0559 0.404726 30.6888 0.640619 30.3797 0.937984L18.0321 12.8121L5.68444 0.940116C5.05997 0.339808 4.213 0.00255838 3.32987 0.00255839C2.44673 0.0025584 1.59977 0.339808 0.975296 0.940116C0.350825 1.54042 6.57987e-09 2.35462 0 3.20358C-6.57987e-09 4.05255 0.350825 4.86674 0.975296 5.46705L13.3274 17.3348L0.977514 29.2046C0.668307 29.5019 0.423031 29.8548 0.25569 30.2431C0.0883486 30.6315 0.00221904 31.0478 0.00221904 31.4681C0.00221904 32.3171 0.353043 33.1313 0.977514 33.7316C1.60198 34.3319 2.44895 34.6691 3.33209 34.6691C4.21522 34.6691 5.06219 34.3319 5.68666 33.7316L18.0321 21.8575L30.3797 33.7294C31.0042 34.3298 31.8511 34.667 32.7343 34.667C33.6174 34.667 34.4644 34.3298 35.0888 33.7294C35.7133 33.1291 36.0641 32.3149 36.0641 31.466C36.0641 30.617 35.7133 29.8028 35.0888 29.2025L22.7368 17.3348L35.0866 5.46492C35.3959 5.16774 35.6413 4.81489 35.8088 4.42651C35.9762 4.03814 36.0624 3.62185 36.0624 3.20145C36.0624 2.78105 35.9762 2.36476 35.8088 1.97639C35.6413 1.58801 35.3959 1.23516 35.0866 0.937984" fill="#F8F8F8"/>
<path d="M30.3797 0.937984L31.0728 1.65878L31.0729 1.65868L30.3797 0.937984ZM18.0321 12.8121L17.339 13.533L18.0321 14.1994L18.7252 13.5329L18.0321 12.8121ZM5.68444 0.940116L6.37752 0.219262L6.37746 0.2192L5.68444 0.940116ZM3.32987 0.00255839L3.32987 -0.997442L3.32987 0.00255839ZM0 3.20358L1 3.20358L0 3.20358ZM0.975296 5.46705L0.282274 6.18797L0.282468 6.18815L0.975296 5.46705ZM13.3274 17.3348L14.0203 18.0558L14.7706 17.3347L14.0202 16.6137L13.3274 17.3348ZM0.977514 29.2046L0.284556 28.4837L0.284492 28.4837L0.977514 29.2046ZM0.00221904 31.4681L-0.997781 31.4681L0.00221904 31.4681ZM3.33209 34.6691L3.33209 35.6691L3.33209 34.6691ZM5.68666 33.7316L6.37968 34.4525L6.37987 34.4523L5.68666 33.7316ZM18.0321 21.8575L18.7252 21.1366L18.0319 20.4701L17.3388 21.1367L18.0321 21.8575ZM30.3797 33.7294L29.6866 34.4503L29.6867 34.4504L30.3797 33.7294ZM32.7343 34.667L32.7343 35.667L32.7343 34.667ZM36.0641 31.466L37.0641 31.466L36.0641 31.466ZM35.0888 29.2025L35.7819 28.4816L35.7817 28.4814L35.0888 29.2025ZM22.7368 17.3348L22.0438 16.6138L21.2935 17.3349L22.0439 18.0559L22.7368 17.3348ZM35.0866 5.46492L34.3938 4.74378L34.3937 4.74394L35.0866 5.46492ZM36.0624 3.20145L35.0624 3.20145L36.0624 3.20145ZM35.7821 0.21729C35.3784 -0.171026 34.9012 -0.477077 34.3787 -0.685216L33.6386 1.17278C33.9241 1.28653 34.181 1.45227 34.3956 1.65868L35.7821 0.21729ZM34.3787 -0.685216C33.8563 -0.893335 33.2976 -1 32.7343 -1V1C33.0456 1 33.353 1.05901 33.6386 1.17278L34.3787 -0.685216ZM32.7343 -1C32.1709 -1 31.6122 -0.893335 31.0898 -0.685216L31.83 1.17278C32.1156 1.05901 32.423 1 32.7343 1V-1ZM31.0898 -0.685216C30.5673 -0.477077 30.0901 -0.171026 29.6864 0.21729L31.0729 1.65868C31.2875 1.45227 31.5444 1.28653 31.83 1.17278L31.0898 -0.685216ZM29.6865 0.217192L17.3389 12.0913L18.7252 13.5329L31.0728 1.65878L29.6865 0.217192ZM18.7252 12.0913L6.37752 0.219262L4.99135 1.66097L17.339 13.533L18.7252 12.0913ZM6.37746 0.2192C5.5627 -0.564038 4.46576 -0.997442 3.32987 -0.997442L3.32987 1.00256C3.96024 1.00256 4.55724 1.24365 4.99142 1.66103L6.37746 0.2192ZM3.32987 -0.997442C2.19397 -0.997442 1.09704 -0.564038 0.282274 0.2192L1.66832 1.66103C2.1025 1.24365 2.69949 1.00256 3.32987 1.00256L3.32987 -0.997442ZM0.282274 0.2192C-0.533832 1.00373 -1 2.07639 -1 3.20358L1 3.20358C1 2.63285 1.23548 2.07712 1.66832 1.66103L0.282274 0.2192ZM-1 3.20358C-1 4.33078 -0.533831 5.40344 0.282274 6.18797L1.66832 4.74613C1.23548 4.33004 1 3.77431 1 3.20358L-1 3.20358ZM0.282468 6.18815L12.6345 18.0559L14.0202 16.6137L1.66812 4.74595L0.282468 6.18815ZM12.6344 16.6138L0.284556 28.4837L1.67047 29.9256L14.0203 18.0558L12.6344 16.6138ZM0.284492 28.4837C-0.119338 28.8719 -0.441869 29.335 -0.662684 29.8474L1.17406 30.6388C1.28793 30.3746 1.45595 30.1318 1.67054 29.9256L0.284492 28.4837ZM-0.662684 29.8474C-0.883543 30.36 -0.997781 30.9108 -0.997781 31.4681L1.00222 31.4681C1.00222 31.1847 1.06024 30.903 1.17406 30.6388L-0.662684 29.8474ZM-0.997781 31.4681C-0.997781 32.5953 -0.531614 33.668 0.284492 34.4525L1.67054 33.0107C1.2377 32.5946 1.00222 32.0388 1.00222 31.4681L-0.997781 31.4681ZM0.284492 34.4525C1.09926 35.2357 2.19619 35.6691 3.33209 35.6691L3.33209 33.6691C2.70171 33.6691 2.10471 33.428 1.67054 33.0107L0.284492 34.4525ZM3.33209 35.6691C4.46798 35.6691 5.56491 35.2357 6.37968 34.4525L4.99364 33.0107C4.55946 33.428 3.96246 33.6691 3.33209 33.6691L3.33209 35.6691ZM6.37987 34.4523L18.7253 22.5782L17.3388 21.1367L4.99344 33.0109L6.37987 34.4523ZM17.339 22.5783L29.6866 34.4503L31.0728 33.0086L18.7252 21.1366L17.339 22.5783ZM29.6867 34.4504C30.5014 35.2336 31.5984 35.667 32.7343 35.667L32.7343 33.667C32.1039 33.667 31.5069 33.4259 31.0727 33.0085L29.6867 34.4504ZM32.7343 35.667C33.8702 35.667 34.9671 35.2336 35.7819 34.4504L34.3958 33.0085C33.9616 33.4259 33.3646 33.667 32.7343 33.667L32.7343 35.667ZM35.7819 34.4504C36.598 33.6658 37.0641 32.5932 37.0641 31.466L35.0641 31.466C35.0641 32.0367 34.8287 32.5924 34.3958 33.0085L35.7819 34.4504ZM37.0641 31.466C37.0641 30.3388 36.598 29.2661 35.7819 28.4816L34.3958 29.9234C34.8287 30.3395 35.0641 30.8953 35.0641 31.466L37.0641 31.466ZM35.7817 28.4814L23.4296 16.6137L22.0439 18.0559L34.396 29.9236L35.7817 28.4814ZM23.4297 18.0558L35.7796 6.1859L34.3937 4.74394L22.0438 16.6138L23.4297 18.0558ZM35.7794 6.18605C36.1834 5.79792 36.5061 5.3349 36.7271 4.82238L34.8905 4.03065C34.7765 4.29488 34.6085 4.53757 34.3938 4.74378L35.7794 6.18605ZM36.7271 4.82238C36.948 4.30976 37.0624 3.75883 37.0624 3.20145L35.0624 3.20145C35.0624 3.48487 35.0043 3.76652 34.8905 4.03065L36.7271 4.82238ZM37.0624 3.20145C37.0624 2.64407 36.948 2.09314 36.7271 1.58052L34.8905 2.37225C35.0043 2.63639 35.0624 2.91803 35.0624 3.20145L37.0624 3.20145ZM36.7271 1.58052C36.5061 1.068 36.1834 0.604985 35.7794 0.216846L34.3938 1.65912C34.6085 1.86533 34.7765 2.10802 34.8905 2.37225L36.7271 1.58052Z" fill="#FDF8F8" mask="url(#path-1-inside-1_133_46)"/>
</svg>
