<svg width="37" height="36" viewBox="0 0 37 36" fill="none" xmlns="http://www.w3.org/2000/svg">
<path d="M35.3457 1.60321C35.0365 1.30584 34.6695 1.06995 34.2655 0.909005C33.8615 0.748061 33.4284 0.665222 32.9911 0.665222C32.5538 0.665222 32.1207 0.748061 31.7167 0.909005C31.3127 1.06995 30.9457 1.30584 30.6365 1.60321L18.2889 13.4773L5.94127 1.60534C5.3168 1.00503 4.46984 0.667781 3.5867 0.667781C2.70357 0.667781 1.8566 1.00503 1.23213 1.60534C0.607661 2.20565 0.256836 3.01984 0.256836 3.86881C0.256836 4.71777 0.607661 5.53196 1.23213 6.13227L13.5842 18L1.23435 29.8699C0.925143 30.1671 0.679867 30.52 0.512526 30.9084C0.345185 31.2967 0.259055 31.713 0.259055 32.1333C0.259055 32.9823 0.609879 33.7965 1.23435 34.3968C1.85882 34.9971 2.70579 35.3344 3.58892 35.3344C4.47206 35.3344 5.31902 34.9971 5.94349 34.3968L18.2889 22.5227L30.6365 34.3947C31.261 34.995 32.108 35.3322 32.9911 35.3322C33.8742 35.3322 34.7212 34.995 35.3457 34.3947C35.9701 33.7944 36.321 32.9802 36.321 32.1312C36.321 31.2822 35.9701 30.468 35.3457 29.8677L22.9936 18L35.3435 6.13014C35.6528 5.83296 35.8982 5.48011 36.0656 5.09173C36.233 4.70336 36.3192 4.28708 36.3192 3.86667C36.3192 3.44627 36.233 3.02999 36.0656 2.64161C35.8982 2.25324 35.6528 1.90038 35.3435 1.60321" fill="#F8F8F8"/>
</svg>
