<svg width="37" height="46" viewBox="0 0 37 46" fill="none" xmlns="http://www.w3.org/2000/svg">
<path d="M18.5 27.6C13.5935 27.6 8.88795 26.1461 5.41853 23.5581C1.9491 20.9701 0 17.46 0 13.8C0 10.14 1.9491 6.62993 5.41853 4.04193C8.88795 1.45392 13.5935 0 18.5 0C23.4065 0 28.1121 1.45392 31.5815 4.04193C35.0509 6.62993 37 10.14 37 13.8C37 17.46 35.0509 20.9701 31.5815 23.5581C28.1121 26.1461 23.4065 27.6 18.5 27.6ZM18.5 20.7C20.9533 20.7 23.306 19.973 25.0407 18.679C26.7754 17.385 27.75 15.63 27.75 13.8C27.75 11.97 26.7754 10.215 25.0407 8.92096C23.306 7.62696 20.9533 6.9 18.5 6.9C16.0467 6.9 13.694 7.62696 11.9593 8.92096C10.2246 10.215 9.25 11.97 9.25 13.8C9.25 15.63 10.2246 17.385 11.9593 18.679C13.694 19.973 16.0467 20.7 18.5 20.7ZM30.8333 27.025V46L18.5 36.8L6.16667 46V27.025C9.78073 28.9142 14.0869 29.9277 18.5 29.9277C22.9131 29.9277 27.2193 28.9142 30.8333 27.025Z" fill="#F8F8F8"/>
</svg>
