<svg width="31" height="39" viewBox="0 0 31 39" fill="none" xmlns="http://www.w3.org/2000/svg">
<path d="M15.5 18.525C14.0318 18.525 12.6238 18.0114 11.5857 17.0971C10.5475 16.1829 9.96428 14.9429 9.96428 13.65C9.96428 12.3571 10.5475 11.1171 11.5857 10.2029C12.6238 9.28862 14.0318 8.775 15.5 8.775C16.9682 8.775 18.3762 9.28862 19.4143 10.2029C20.4525 11.1171 21.0357 12.3571 21.0357 13.65C21.0357 14.2902 20.8925 14.9241 20.6143 15.5156C20.3361 16.107 19.9284 16.6445 19.4143 17.0971C18.9003 17.5498 18.2901 17.9089 17.6184 18.1539C16.9468 18.3989 16.227 18.525 15.5 18.525ZM15.5 0C11.3891 0 7.44666 1.43812 4.53984 3.99799C1.63303 6.55786 0 10.0298 0 13.65C0 23.8875 15.5 39 15.5 39C15.5 39 31 23.8875 31 13.65C31 10.0298 29.367 6.55786 26.4602 3.99799C23.5533 1.43812 19.6109 0 15.5 0Z" fill="#F8F8F8"/>
</svg>
