<svg width="40" height="46" viewBox="0 0 40 46" fill="none" xmlns="http://www.w3.org/2000/svg">
<path d="M20 27.6C14.6957 27.6 9.60859 26.1461 5.85786 23.5581C2.10714 20.9701 0 17.46 0 13.8C0 10.14 2.10714 6.62993 5.85786 4.04193C9.60859 1.45392 14.6957 0 20 0C25.3043 0 30.3914 1.45392 34.1421 4.04193C37.8929 6.62993 40 10.14 40 13.8C40 17.46 37.8929 20.9701 34.1421 23.5581C30.3914 26.1461 25.3043 27.6 20 27.6ZM20 20.7C22.6522 20.7 25.1957 19.973 27.0711 18.679C28.9464 17.385 30 15.63 30 13.8C30 11.97 28.9464 10.215 27.0711 8.92096C25.1957 7.62696 22.6522 6.9 20 6.9C17.3478 6.9 14.8043 7.62696 12.9289 8.92096C11.0536 10.215 10 11.97 10 13.8C10 15.63 11.0536 17.385 12.9289 18.679C14.8043 19.973 17.3478 20.7 20 20.7ZM33.3333 27.025V46L20 36.8L6.66667 46V27.025C10.5738 28.9142 15.229 29.9277 20 29.9277C24.771 29.9277 29.4262 28.9142 33.3333 27.025Z" fill="#F8F8F8"/>
</svg>
