<svg width="32" height="39" viewBox="0 0 32 39" fill="none" xmlns="http://www.w3.org/2000/svg">
<path d="M16 18.525C14.4845 18.525 13.031 18.0114 11.9594 17.0971C10.8878 16.1829 10.2857 14.9429 10.2857 13.65C10.2857 12.3571 10.8878 11.1171 11.9594 10.2029C13.031 9.28862 14.4845 8.775 16 8.775C17.5155 8.775 18.969 9.28862 20.0406 10.2029C21.1122 11.1171 21.7143 12.3571 21.7143 13.65C21.7143 14.2902 21.5665 14.9241 21.2793 15.5156C20.9921 16.107 20.5712 16.6445 20.0406 17.0971C19.51 17.5498 18.8801 17.9089 18.1868 18.1539C17.4935 18.3989 16.7504 18.525 16 18.525ZM16 0C11.7565 0 7.68687 1.43812 4.68629 3.99799C1.68571 6.55786 0 10.0298 0 13.65C0 23.8875 16 39 16 39C16 39 32 23.8875 32 13.65C32 10.0298 30.3143 6.55786 27.3137 3.99799C24.3131 1.43812 20.2435 0 16 0Z" fill="#F8F8F8"/>
</svg>
