<svg width="36" height="46" viewBox="0 0 36 46" fill="none" xmlns="http://www.w3.org/2000/svg">
<path d="M18 27.6C13.2261 27.6 8.64773 26.1461 5.27208 23.5581C1.89642 20.9701 0 17.46 0 13.8C0 10.14 1.89642 6.62993 5.27208 4.04193C8.64773 1.45392 13.2261 0 18 0C22.7739 0 27.3523 1.45392 30.7279 4.04193C34.1036 6.62993 36 10.14 36 13.8C36 17.46 34.1036 20.9701 30.7279 23.5581C27.3523 26.1461 22.7739 27.6 18 27.6ZM18 20.7C20.3869 20.7 22.6761 19.973 24.364 18.679C26.0518 17.385 27 15.63 27 13.8C27 11.97 26.0518 10.215 24.364 8.92096C22.6761 7.62696 20.3869 6.9 18 6.9C15.6131 6.9 13.3239 7.62696 11.636 8.92096C9.94821 10.215 9 11.97 9 13.8C9 15.63 9.94821 17.385 11.636 18.679C13.3239 19.973 15.6131 20.7 18 20.7ZM30 27.025V46L18 36.8L6 46V27.025C9.51638 28.9142 13.7061 29.9277 18 29.9277C22.2939 29.9277 26.4836 28.9142 30 27.025Z" fill="#F8F8F8"/>
</svg>
