<svg width="29" height="39" viewBox="0 0 29 39" fill="none" xmlns="http://www.w3.org/2000/svg">
<path d="M14.5 18.525C13.1266 18.525 11.8094 18.0114 10.8382 17.0971C9.86703 16.1829 9.32143 14.9429 9.32143 13.65C9.32143 12.3571 9.86703 11.1171 10.8382 10.2029C11.8094 9.28862 13.1266 8.775 14.5 8.775C15.8734 8.775 17.1906 9.28862 18.1618 10.2029C19.133 11.1171 19.6786 12.3571 19.6786 13.65C19.6786 14.2902 19.5446 14.9241 19.2844 15.5156C19.0241 16.107 18.6427 16.6445 18.1618 17.0971C17.6809 17.5498 17.11 17.9089 16.4818 18.1539C15.8535 18.3989 15.1801 18.525 14.5 18.525ZM14.5 0C10.6544 0 6.96623 1.43812 4.24695 3.99799C1.52767 6.55786 0 10.0298 0 13.65C0 23.8875 14.5 39 14.5 39C14.5 39 29 23.8875 29 13.65C29 10.0298 27.4723 6.55786 24.753 3.99799C22.0338 1.43812 18.3456 0 14.5 0Z" fill="#F8F8F8"/>
</svg>
